HIERARCHY
ROOT joint_0
{
	OFFSET 0.000000 0.000000 0.000000
	CHANNELS 6 Xposition Yposition Zposition Zrotation Yrotation Xrotation 
	JOINT joint_1
	{
		OFFSET 5.091736 1.614004 124.993042
		CHANNELS 3 Zrotation Yrotation Xrotation
		JOINT joint_2
		{
			OFFSET -7.754517 4.363039 113.797974
			CHANNELS 3 Zrotation Yrotation Xrotation
			JOINT joint_3
			{
				OFFSET -8.706238 5.370684 113.558960
				CHANNELS 3 Zrotation Yrotation Xrotation
				JOINT joint_4
				{
					OFFSET 2.800659 5.843341 158.209106
					CHANNELS 3 Zrotation Yrotation Xrotation
					JOINT joint_5
					{
						OFFSET 20.525452 8.617594 92.185913
						CHANNELS 3 Zrotation Yrotation Xrotation
						End Site
						{
							OFFSET 0.000000 0.000000 0.000000
						}
					}
				}
				JOINT joint_6
				{
					OFFSET -4.183167 -30.671114 90.057007
					CHANNELS 3 Zrotation Yrotation Xrotation
					JOINT joint_7
					{
						OFFSET -24.729675 -138.200195 -6.097900
						CHANNELS 3 Zrotation Yrotation Xrotation
						JOINT joint_8
						{
							OFFSET 16.966858 -51.567780 -315.633057
							CHANNELS 3 Zrotation Yrotation Xrotation
							JOINT joint_9
							{
								OFFSET 129.835388 -40.459091 176.646973
								CHANNELS 3 Zrotation Yrotation Xrotation
								End Site
								{
									OFFSET 0.000000 0.000000 0.000000
								}
							}
						}
					}
				}
				JOINT joint_10
				{
					OFFSET 7.338745 37.199406 87.346069
					CHANNELS 3 Zrotation Yrotation Xrotation
					JOINT joint_11
					{
						OFFSET 20.327698 137.488367 -20.779053
						CHANNELS 3 Zrotation Yrotation Xrotation
						JOINT joint_12
						{
							OFFSET 150.763062 48.206573 -278.419922
							CHANNELS 3 Zrotation Yrotation Xrotation
							JOINT joint_13
							{
								OFFSET 12.571289 -162.355251 152.253906
								CHANNELS 3 Zrotation Yrotation Xrotation
								End Site
								{
									OFFSET 0.000000 0.000000 0.000000
								}
							}
						}
					}
				}
			}
		}
	}
	JOINT joint_14
	{
		OFFSET -7.600342 -77.970001 -95.010986
		CHANNELS 3 Zrotation Yrotation Xrotation
		JOINT joint_15
		{
			OFFSET -2.666199 -21.455009 -443.700989
			CHANNELS 3 Zrotation Yrotation Xrotation
			JOINT joint_16
			{
				OFFSET -22.487976 -19.310196 -481.059006
				CHANNELS 3 Zrotation Yrotation Xrotation
				JOINT joint_17
				{
					OFFSET 177.776611 65.723053 -82.445997
					CHANNELS 3 Zrotation Yrotation Xrotation
					End Site
					{
						OFFSET 0.000000 0.000000 0.000000
					}
				}
			}
		}
	}
	JOINT joint_18
	{
		OFFSET 17.063904 75.900681 -95.447021
		CHANNELS 3 Zrotation Yrotation Xrotation
		JOINT joint_19
		{
			OFFSET -21.510803 8.101997 -443.629944
			CHANNELS 3 Zrotation Yrotation Xrotation
			JOINT joint_20
			{
				OFFSET -7.473022 -28.501774 -481.230011
				CHANNELS 3 Zrotation Yrotation Xrotation
				JOINT joint_21
				{
					OFFSET 177.760559 -64.115177 -83.737001
					CHANNELS 3 Zrotation Yrotation Xrotation
					End Site
					{
						OFFSET 0.000000 0.000000 0.000000
					}
				}
			}
		}
	}
}
MOTION
Frames: 6
Frame Time: 0.016667
-745.201050 -38.433617 1121.988037 2.842760 -0.654749 0.034184 1.365558 3.407228 0.784633 1.478662 -0.357236 -0.140710 1.440339 0.945397 0.129526 -0.787652 1.598817 2.667964 0.000000 0.000000 0.000000 -2.124300 -3.726725 3.283633 19.318530 -1.938408 -14.548208 16.011831 10.246776 -27.786021 0.000000 0.000000 0.000000 -4.408911 3.160248 0.336432 3.668145 3.401171 6.103417 -1.771926 -1.819252 -2.534320 0.000000 0.000000 0.000000 -4.529734 0.007356 -1.772015 -4.618812 1.522616 0.556951 -4.376566 -2.753456 -1.007655 0.000000 0.000000 0.000000 -0.225280 -2.444716 0.126656 -0.271784 5.999945 4.237222 0.457300 -4.168696 -1.289431 0.000000 0.000000 0.000000 
-744.225952 -39.473675 1122.286011 3.125976 -0.227745 0.099759 1.558538 3.893236 0.598929 1.719822 -0.415937 -0.071941 1.664126 1.056736 0.069856 -0.685073 0.800456 2.585785 0.000000 0.000000 0.000000 -2.598532 -3.441174 2.971108 19.047722 -1.943612 -13.968060 15.737142 9.905154 -27.596867 0.000000 0.000000 0.000000 -4.878852 3.176122 0.949955 3.785973 3.619847 5.723952 -1.694791 -1.769599 -3.000128 0.000000 0.000000 0.000000 -4.644590 -0.319684 -1.798033 -4.743997 1.398152 0.652218 -4.502063 -2.603963 -1.121410 0.000000 0.000000 0.000000 -0.328307 -2.867371 0.187917 -0.358808 5.956169 4.113311 0.362650 -4.109864 -1.312387 0.000000 0.000000 0.000000 
-742.737915 -40.641632 1122.740967 3.517953 0.383039 0.184935 1.783063 4.421924 0.397453 2.000634 -0.461613 0.003358 1.927255 1.148718 -0.007987 -0.535924 -0.292255 2.451228 0.000000 0.000000 0.000000 -2.645205 -3.006702 2.727828 18.456449 -1.705708 -13.683369 15.252136 9.397044 -27.031745 0.000000 0.000000 0.000000 -5.759226 3.387208 1.882032 4.189817 4.174901 5.181174 -1.458477 -1.587843 -3.863198 0.000000 0.000000 0.000000 -4.793097 -0.771099 -1.844869 -4.905938 1.199248 0.796674 -4.665442 -2.384696 -1.278608 0.000000 0.000000 0.000000 -0.472819 -3.456729 0.269669 -0.481446 5.871225 3.937951 0.225188 -3.994049 -1.334768 0.000000 0.000000 0.000000 
-740.678528 -41.790493 1123.449951 3.966752 1.016616 0.265515 1.985737 4.848880 0.267941 2.251246 -0.477454 0.055972 2.166128 1.198753 -0.074161 -0.375159 -1.393743 2.274065 0.000000 0.000000 0.000000 -2.554856 -2.657564 2.563252 17.899214 -1.456784 -13.689598 14.838102 8.710777 -26.736105 0.000000 0.000000 0.000000 -6.738495 3.509501 2.692382 4.525635 4.617193 4.730737 -1.327695 -1.503667 -4.701776 0.000000 0.000000 0.000000 -4.970724 -1.223470 -1.836235 -5.096763 0.997910 0.890448 -4.862309 -2.049118 -1.494366 0.000000 0.000000 0.000000 -0.621431 -4.060166 0.339381 -0.609310 5.803645 3.784599 0.078815 -3.789693 -1.329356 0.000000 0.000000 0.000000 
-737.844849 -42.813755 1124.493042 4.449074 1.579140 0.341472 2.153510 5.031490 0.249668 2.442896 -0.462997 0.069825 2.355214 1.207988 -0.100312 -0.227090 -2.380803 2.083864 0.000000 0.000000 0.000000 -2.548947 -2.580495 2.547371 17.617970 -1.333373 -14.144220 14.698941 7.762692 -27.289580 0.000000 0.000000 0.000000 -7.718687 3.330800 3.148509 4.527730 4.672940 4.476790 -1.492722 -1.688315 -5.218200 0.000000 0.000000 0.000000 -5.191999 -1.567731 -1.737297 -5.324103 0.772966 0.886696 -5.104969 -1.512876 -1.805671 0.000000 0.000000 0.000000 -0.748293 -4.564326 0.358310 -0.722165 5.755559 3.693298 -0.058917 -3.434938 -1.265659 0.000000 0.000000 0.000000 
-734.262817 -43.767975 1125.833984 4.983507 2.130811 0.425103 2.311418 5.027057 0.306525 2.605600 -0.432900 0.053527 2.521687 1.193984 -0.096583 -0.080713 -3.362009 1.865233 0.000000 0.000000 0.000000 -2.525223 -2.687478 2.652879 17.462572 -1.261410 -15.028547 14.705132 6.541621 -28.491702 0.000000 0.000000 0.000000 -8.826320 2.955945 3.427733 4.324091 4.511688 4.314531 -1.853146 -2.055691 -5.567907 0.000000 0.000000 0.000000 -5.459404 -1.851390 -1.577171 -5.591806 0.494822 0.823885 -5.396257 -0.790161 -2.208705 0.000000 0.000000 0.000000 -0.866589 -5.025870 0.337072 -0.830448 5.703166 3.635981 -0.200088 -2.938881 -1.152636 0.000000 0.000000 0.000000 
